<svg width="1419" height="1419" viewBox="0 0 1419 1419" fill="none" xmlns="http://www.w3.org/2000/svg">
<circle cx="709.5" cy="709.5" r="686" fill="white" stroke="#6E6E96" stroke-width="47"/>
<path d="M373.14 1408.34L655.956 1318.1C655.956 1318.1 681.262 1311.49 681.262 1292.78V959.349C681.262 959.349 683.466 936.239 648.801 926.886C614.143 917.534 424.86 877.918 424.86 877.918C424.86 877.918 400.641 869.113 347.832 880.117L107.492 943.015L103.043 945.04L373.14 1408.34Z" fill="#FFDEC2"/>
<path d="M376.091 1417.59L658.906 1327.35C658.741 1327.4 658.575 1327.45 658.409 1327.5C670.498 1324.34 690.969 1313.48 690.969 1292.79V959.354C690.969 959.662 690.955 959.968 690.921 960.276C691.047 958.999 693.421 928.875 651.329 917.517C616.795 908.202 434.592 870.04 426.852 868.421C427.304 868.516 427.748 868.642 428.182 868.799C427.088 868.401 400.737 859.184 345.853 870.62C345.693 870.654 345.533 870.691 345.375 870.731L105.035 933.623C104.498 933.762 103.974 933.948 103.47 934.178L99.0209 936.203C97.7863 936.765 96.6834 937.581 95.7833 938.596C94.8831 939.611 94.2056 940.804 93.7945 942.097C93.3834 943.39 93.2477 944.755 93.3963 946.103C93.5449 947.452 93.9744 948.755 94.6571 949.927L364.755 1413.23C365.867 1415.13 367.596 1416.61 369.657 1417.4C371.718 1418.19 373.988 1418.26 376.091 1417.59ZM107.064 953.874L111.513 951.849C111.008 952.08 110.484 952.266 109.947 952.405L350.287 889.512C350.129 889.554 349.969 889.591 349.809 889.623C398.556 879.466 421.326 886.966 421.544 887.043C421.979 887.201 422.42 887.327 422.874 887.422C424.76 887.818 612.274 927.089 646.271 936.261C671.536 943.078 671.65 957.082 671.58 958.657C671.551 958.963 671.553 959.046 671.553 959.354V1292.79C671.553 1303.52 653.686 1308.66 653.501 1308.71C653.334 1308.76 653.168 1308.8 653.004 1308.86L370.191 1399.09C372.295 1398.42 374.564 1398.49 376.625 1399.28C378.686 1400.07 380.415 1401.55 381.528 1403.45L111.43 940.149C112.814 942.52 113.127 945.364 112.292 947.981C111.882 949.274 111.204 950.467 110.304 951.482C109.403 952.498 108.299 953.312 107.064 953.874Z" fill="#6E6E96"/>
<path d="M116.739 1318.11C116.739 1318.11 94.7329 1309.3 94.7329 1287.3L94.7305 959.54C94.7305 959.54 96.6187 935.149 125.539 943.952C158.231 953.9 373.143 1009.98 373.143 1009.98V1408.34C373.143 1408.34 372.929 1410.59 354.435 1408.16C327.442 1404.6 116.739 1318.11 116.739 1318.11Z" fill="#FFDEC2"/>
<path d="M120.344 1309.09L120.405 1309.12C119.75 1308.85 104.435 1302.3 104.435 1287.3V959.541C104.435 959.791 104.425 960.043 104.404 960.291C104.399 960.376 105.027 955.366 108.389 953.146C112.039 950.731 118.194 951.864 122.711 953.24C155.216 963.133 361.905 1017.08 370.688 1019.37C368.61 1018.83 366.77 1017.61 365.457 1015.91C364.143 1014.21 363.431 1012.13 363.431 1009.98V1408.34C363.431 1408.03 363.446 1407.73 363.475 1407.43C363.941 1402.51 367.839 1399.83 369.822 1399.49C369.7 1399.51 366.73 1399.98 355.701 1398.53C336.817 1396.04 204.651 1343.7 120.344 1309.09ZM353.168 1417.79C370.339 1420.05 375.506 1418.95 379.032 1416.14C381.095 1414.49 382.559 1411.88 382.806 1409.26C382.837 1408.95 382.853 1408.65 382.852 1408.34V1009.98C382.852 1007.83 382.14 1005.74 380.827 1004.04C379.514 1002.34 377.674 1001.13 375.596 1000.58C373.448 1000.03 160.502 944.442 128.37 934.664C115.823 930.844 105.389 931.686 97.3653 937.164C86.4534 944.612 85.1671 957.359 85.0555 958.788C85.0312 959.038 85.0215 959.291 85.0215 959.541V1287.29C85.0215 1315.55 111.981 1326.66 113.131 1327.12C134.736 1335.99 325.713 1414.16 353.168 1417.79Z" fill="#6E6E96"/>
<path d="M388.822 1009.98L672.489 938.086C667.679 933.78 660.611 929.708 650.18 926.892C615.522 917.541 426.237 877.925 426.237 877.925C426.237 877.925 402.02 869.12 349.208 880.124L109.883 942.391L110.808 942.013L361.448 1009.88C361.448 1009.88 374.124 1013.7 388.822 1009.98Z" fill="#FFDEC2"/>
<path d="M391.208 1019.39L674.878 947.498C676.585 947.066 678.142 946.178 679.383 944.928C680.623 943.678 681.5 942.114 681.918 940.404C682.34 938.693 682.288 936.901 681.767 935.218C681.246 933.535 680.276 932.026 678.962 930.853C672.332 924.919 663.497 920.434 652.709 917.522C618.175 908.207 435.967 870.045 428.23 868.426C428.684 868.52 429.123 868.647 429.56 868.804C428.465 868.406 402.118 859.189 347.233 870.625C347.078 870.659 346.923 870.693 346.77 870.734L107.442 932.996C109.825 932.375 112.355 932.683 114.52 933.858C116.684 935.032 118.322 936.986 119.1 939.322C119.879 941.659 119.74 944.204 118.712 946.442C117.685 948.68 115.845 950.444 113.565 951.376L114.49 950.998C112.517 951.805 110.334 951.94 108.277 951.384L358.917 1019.25L358.652 1019.17C359.269 1019.36 374.098 1023.73 391.208 1019.39ZM363.989 1000.51L113.347 932.642C111.289 932.085 109.105 932.221 107.131 933.028L106.207 933.407C103.927 934.339 102.087 936.103 101.059 938.341C100.032 940.579 99.8931 943.124 100.672 945.461C101.45 947.797 103.087 949.75 105.252 950.925C107.417 952.099 109.947 952.407 112.33 951.786L351.653 889.519C351.502 889.56 351.345 889.594 351.192 889.628C399.552 879.551 422.621 886.937 422.832 887.014C423.293 887.189 423.772 887.325 424.252 887.427C426.14 887.822 613.656 927.094 647.654 936.266C655.491 938.38 661.665 941.425 666.019 945.321C664.707 944.147 663.739 942.638 663.218 940.956C662.698 939.274 662.644 937.482 663.064 935.772C663.484 934.062 664.36 932.499 665.6 931.249C666.841 929.999 668.397 929.11 670.104 928.676L386.434 1000.57C374.722 1003.54 364.307 1000.6 363.989 1000.51Z" fill="#6E6E96"/>
<path opacity="0.15" d="M112.326 951.786L116.797 954.322L313.987 1066.17L362.981 1398.53L364.954 1017.63" fill="#6E6E96"/>
<path opacity="0.15" d="M382.85 1395.05L432.912 1058.89L666.017 945.321L382.85 1019.39V1395.05Z" fill="#6E6E96"/>
<path d="M416.813 770.863L632.2 702.139C632.2 702.139 651.473 697.108 651.473 682.86V428.922C651.473 428.922 653.152 411.322 626.751 404.198C600.356 397.076 456.202 366.905 456.202 366.905C456.202 366.905 437.757 360.199 397.538 368.58L214.499 416.482L211.111 418.024L416.813 770.863Z" fill="#F0B3F6"/>
<path d="M419.061 777.907L634.448 709.184C634.322 709.224 634.196 709.261 634.069 709.295C643.276 706.891 658.867 698.619 658.867 682.864V428.925C658.867 429.16 658.856 429.392 658.83 429.627C658.926 428.655 660.734 405.713 628.677 397.063C602.377 389.969 463.614 360.905 457.72 359.672C458.063 359.744 458.402 359.84 458.732 359.96C457.899 359.657 437.831 352.637 396.032 361.346C395.91 361.372 395.789 361.401 395.668 361.431L212.629 409.328C212.22 409.435 211.821 409.576 211.437 409.752L208.049 411.293C207.109 411.722 206.269 412.343 205.583 413.116C204.898 413.889 204.382 414.798 204.068 415.782C203.755 416.767 203.652 417.806 203.765 418.834C203.878 419.861 204.205 420.853 204.725 421.746L410.427 774.587C411.274 776.04 412.591 777.16 414.161 777.764C415.73 778.367 417.459 778.418 419.061 777.907ZM214.174 424.751L217.562 423.21C217.178 423.385 216.779 423.527 216.37 423.633L399.409 375.734C399.288 375.766 399.167 375.795 399.045 375.819C436.169 368.084 453.511 373.795 453.677 373.854C454.008 373.975 454.344 374.071 454.69 374.143C456.126 374.444 598.933 404.353 624.825 411.338C644.067 416.53 644.154 427.195 644.1 428.394C644.078 428.627 644.08 428.69 644.08 428.925V682.864C644.08 691.033 630.472 694.952 630.332 694.991C630.204 695.024 630.078 695.061 629.953 695.102L414.567 763.824C416.17 763.313 417.898 763.363 419.468 763.967C421.037 764.571 422.354 765.691 423.201 767.144L217.499 414.299C218.553 416.105 218.791 418.271 218.156 420.263C217.843 421.249 217.328 422.157 216.642 422.93C215.956 423.703 215.115 424.324 214.174 424.751Z" fill="#6E6E96"/>
<path d="M221.542 702.145C221.542 702.145 204.783 695.438 204.783 678.68L204.781 429.067C204.781 429.067 206.219 410.491 228.244 417.195C253.142 424.771 416.815 467.48 416.815 467.48V770.866C416.815 770.866 416.653 772.581 402.568 770.727C382.011 768.014 221.542 702.145 221.542 702.145Z" fill="#F0B3F6"/>
<path d="M224.288 695.281L224.334 695.301C223.835 695.096 212.172 690.104 212.172 678.681V429.067C212.172 429.257 212.164 429.45 212.148 429.638C212.144 429.703 212.623 425.888 215.183 424.197C217.963 422.358 222.65 423.221 226.09 424.269C250.845 431.803 408.256 472.89 414.946 474.635C413.363 474.222 411.961 473.295 410.961 472.001C409.961 470.706 409.419 469.116 409.419 467.48V770.866C409.419 770.632 409.43 770.401 409.452 770.17C409.807 766.427 412.776 764.386 414.286 764.125C414.193 764.14 411.931 764.499 403.532 763.393C389.15 761.501 288.495 721.637 224.288 695.281ZM401.602 778.058C414.68 779.781 418.615 778.946 421.3 776.805C422.872 775.552 423.986 773.563 424.175 771.563C424.198 771.332 424.21 771.099 424.21 770.866V467.48C424.21 465.844 423.667 464.254 422.667 462.96C421.667 461.665 420.266 460.738 418.683 460.325C417.047 459.9 254.871 417.568 230.401 410.121C220.844 407.212 212.898 407.853 206.788 412.025C198.477 417.698 197.498 427.405 197.413 428.494C197.394 428.684 197.387 428.877 197.387 429.067V678.679C197.387 700.196 217.918 708.659 218.795 709.007C235.249 715.765 380.694 775.299 401.602 778.058Z" fill="#6E6E96"/>
<path d="M428.756 467.48L644.792 412.728C641.128 409.449 635.746 406.347 627.801 404.203C601.407 397.081 457.25 366.91 457.25 366.91C457.25 366.91 438.807 360.204 398.587 368.585L216.32 416.007L217.025 415.718L407.908 467.404C407.908 467.404 417.562 470.317 428.756 467.48Z" fill="#F0B3F6"/>
<path d="M430.573 474.648L646.611 419.896C647.911 419.567 649.097 418.891 650.042 417.939C650.986 416.987 651.654 415.796 651.973 414.493C652.294 413.19 652.254 411.825 651.857 410.544C651.461 409.262 650.722 408.113 649.721 407.22C644.672 402.7 637.944 399.285 629.727 397.066C603.427 389.972 464.66 360.909 458.768 359.676C459.113 359.748 459.448 359.844 459.781 359.964C458.947 359.661 438.881 352.641 397.082 361.35C396.964 361.376 396.845 361.402 396.729 361.434L214.461 408.852C216.276 408.379 218.203 408.613 219.851 409.508C221.5 410.402 222.747 411.89 223.34 413.669C223.933 415.449 223.827 417.387 223.044 419.092C222.262 420.796 220.86 422.139 219.124 422.849L219.829 422.561C218.326 423.176 216.664 423.279 215.097 422.855L405.98 474.541L405.779 474.484C406.248 474.626 417.542 477.949 430.573 474.648ZM409.843 460.268L218.958 408.582C217.391 408.158 215.727 408.261 214.224 408.876L213.52 409.164C211.784 409.874 210.383 411.217 209.6 412.922C208.818 414.626 208.712 416.565 209.305 418.344C209.898 420.124 211.145 421.611 212.793 422.506C214.442 423.4 216.369 423.635 218.184 423.162L400.448 375.74C400.333 375.771 400.213 375.797 400.097 375.823C436.927 368.149 454.496 373.773 454.657 373.832C455.008 373.966 455.372 374.069 455.738 374.147C457.176 374.448 599.985 404.356 625.877 411.341C631.846 412.951 636.548 415.271 639.864 418.238C638.865 417.344 638.127 416.195 637.731 414.914C637.334 413.633 637.294 412.268 637.613 410.966C637.933 409.663 638.601 408.473 639.545 407.521C640.49 406.569 641.675 405.892 642.975 405.562L426.937 460.314C418.017 462.575 410.085 460.336 409.843 460.268Z" fill="#6E6E96"/>
<path opacity="0.15" d="M218.184 423.162L221.588 425.093L371.765 510.272L409.078 763.397L410.581 473.304" fill="#6E6E96"/>
<path opacity="0.15" d="M424.207 760.745L462.333 504.727L639.862 418.238L424.207 474.649V760.745Z" fill="#6E6E96"/>
<path d="M882.836 508.822L1071.14 448.739C1071.14 448.739 1087.99 444.34 1087.99 431.885V209.877C1087.99 209.877 1089.46 194.49 1066.38 188.262C1043.3 182.036 917.272 155.659 917.272 155.659C917.272 155.659 901.146 149.796 865.985 157.123L705.962 199.002L703 200.35L882.836 508.822Z" fill="#97DDF3"/>
<path d="M884.797 514.98L1073.1 454.899C1072.99 454.933 1072.88 454.966 1072.77 454.996C1080.82 452.894 1094.45 445.662 1094.45 431.888V209.881C1094.45 210.086 1094.44 210.29 1094.42 210.495C1094.5 209.645 1096.08 189.588 1068.06 182.025C1045.06 175.823 923.748 150.414 918.595 149.336C918.896 149.399 919.191 149.483 919.481 149.588C918.752 149.323 901.207 143.186 864.664 150.8C864.558 150.822 864.452 150.847 864.346 150.874L704.323 192.748C703.966 192.841 703.617 192.965 703.281 193.118L700.319 194.466C699.497 194.841 698.763 195.384 698.163 196.06C697.564 196.736 697.113 197.53 696.839 198.391C696.565 199.252 696.475 200.16 696.574 201.058C696.673 201.956 696.959 202.824 697.413 203.604L877.249 512.078C877.99 513.348 879.141 514.328 880.513 514.855C881.886 515.383 883.397 515.427 884.797 514.98ZM705.674 206.232L708.636 204.884C708.3 205.037 707.951 205.161 707.594 205.254L867.617 163.378C867.511 163.407 867.405 163.431 867.298 163.453C899.755 156.69 914.915 161.683 915.061 161.735C915.35 161.84 915.644 161.924 915.946 161.987C917.202 162.251 1042.05 188.398 1064.69 194.505C1081.51 199.044 1081.59 208.368 1081.54 209.417C1081.52 209.621 1081.52 209.675 1081.52 209.881V431.888C1081.52 439.03 1069.62 442.456 1069.5 442.49C1069.39 442.519 1069.28 442.551 1069.17 442.587L880.869 502.668C882.27 502.221 883.781 502.266 885.153 502.793C886.525 503.321 887.677 504.3 888.417 505.57L708.581 197.094C709.502 198.672 709.711 200.566 709.155 202.308C708.882 203.17 708.431 203.964 707.831 204.64C707.232 205.316 706.497 205.858 705.674 206.232Z" fill="#6E6E96"/>
<path d="M712.118 448.745C712.118 448.745 697.466 442.881 697.466 428.231L697.465 210.005C697.465 210.005 698.722 193.764 717.978 199.626C739.745 206.249 882.837 243.587 882.837 243.587V508.825C882.837 508.825 882.695 510.324 870.381 508.703C852.409 506.331 712.118 448.745 712.118 448.745Z" fill="#97DDF3"/>
<path d="M714.519 442.744L714.559 442.761C714.123 442.582 703.926 438.217 703.926 428.231V210.005C703.926 210.171 703.92 210.339 703.905 210.504C703.902 210.561 704.32 207.225 706.558 205.747C708.989 204.139 713.087 204.893 716.094 205.81C737.737 212.396 875.354 248.317 881.202 249.843C879.818 249.482 878.593 248.672 877.719 247.54C876.844 246.408 876.37 245.018 876.37 243.587V508.825C876.37 508.619 876.38 508.417 876.4 508.215C876.71 504.943 879.305 503.159 880.625 502.931C880.544 502.944 878.567 503.258 871.224 502.291C858.65 500.637 770.652 465.785 714.519 442.744ZM869.537 515.112C880.969 516.618 884.41 515.888 886.758 514.017C888.131 512.921 889.106 511.182 889.271 509.434C889.291 509.231 889.302 509.028 889.301 508.825V243.587C889.301 242.157 888.827 240.767 887.953 239.635C887.078 238.503 885.853 237.693 884.47 237.332C883.039 236.96 741.256 199.952 719.862 193.441C711.508 190.898 704.561 191.458 699.219 195.106C691.953 200.065 691.097 208.552 691.023 209.504C691.006 209.67 691 209.838 691 210.005V428.229C691 447.04 708.95 454.44 709.716 454.744C724.101 460.651 851.257 512.7 869.537 515.112Z" fill="#6E6E96"/>
<path d="M893.275 243.588L1082.15 195.72C1078.94 192.853 1074.24 190.142 1067.29 188.267C1044.22 182.041 918.187 155.664 918.187 155.664C918.187 155.664 902.063 149.801 866.9 157.128L707.553 198.587L708.168 198.335L875.049 243.521C875.049 243.521 883.489 246.068 893.275 243.588Z" fill="#97DDF3"/>
<path d="M894.866 249.854L1083.74 201.986C1084.87 201.699 1085.91 201.108 1086.74 200.276C1087.56 199.443 1088.15 198.402 1088.43 197.263C1088.71 196.124 1088.67 194.931 1088.33 193.81C1087.98 192.69 1087.33 191.685 1086.46 190.904C1082.04 186.953 1076.16 183.967 1068.98 182.028C1045.98 175.826 924.667 150.417 919.516 149.339C919.818 149.402 920.11 149.486 920.401 149.591C919.672 149.326 902.13 143.189 865.587 150.803C865.483 150.825 865.38 150.848 865.278 150.876L705.929 192.331C707.516 191.918 709.2 192.123 710.642 192.905C712.083 193.687 713.173 194.987 713.691 196.543C714.21 198.099 714.117 199.793 713.433 201.283C712.749 202.774 711.524 203.948 710.006 204.569L710.622 204.317C709.308 204.854 707.855 204.944 706.485 204.574L873.366 249.76L873.19 249.71C873.6 249.835 883.473 252.74 894.866 249.854ZM876.743 237.282L709.861 192.095C708.49 191.724 707.036 191.815 705.722 192.352L705.107 192.604C703.589 193.225 702.364 194.399 701.68 195.89C700.995 197.38 700.903 199.074 701.421 200.63C701.94 202.186 703.03 203.486 704.471 204.268C705.912 205.05 707.597 205.255 709.184 204.842L868.529 163.383C868.429 163.41 868.324 163.433 868.222 163.456C900.422 156.746 915.781 161.664 915.922 161.715C916.229 161.832 916.547 161.922 916.867 161.99C918.124 162.253 1042.98 188.401 1065.61 194.508C1070.83 195.915 1074.94 197.943 1077.84 200.537C1076.97 199.755 1076.32 198.751 1075.98 197.631C1075.63 196.511 1075.59 195.318 1075.87 194.179C1076.15 193.041 1076.74 192 1077.56 191.167C1078.39 190.335 1079.42 189.743 1080.56 189.455L891.687 237.322C883.889 239.299 876.955 237.342 876.743 237.282Z" fill="#6E6E96"/>
<path opacity="0.15" d="M709.182 204.842L712.158 206.531L843.451 280.999L876.072 502.295L877.386 248.68" fill="#6E6E96"/>
<path opacity="0.15" d="M889.299 499.976L922.631 276.151L1077.84 200.538L889.299 249.855V499.976Z" fill="#6E6E96"/>
<path d="M985.111 1062.77L1256.14 976.296C1256.14 976.296 1280.39 969.965 1280.39 952.038V632.5C1280.39 632.5 1282.5 610.353 1249.28 601.39C1216.07 592.428 1034.67 554.463 1034.67 554.463C1034.67 554.463 1011.47 546.025 960.857 556.57L730.535 616.847L726.271 618.787L985.111 1062.77Z" fill="#A9EBD5"/>
<path d="M987.938 1071.64L1258.97 985.162C1258.81 985.212 1258.65 985.258 1258.49 985.302C1270.07 982.276 1289.69 971.868 1289.69 952.042V632.505C1289.69 632.8 1289.68 633.093 1289.65 633.389C1289.77 632.165 1292.04 603.297 1251.7 592.412C1218.61 583.485 1044 546.913 1036.58 545.362C1037.02 545.453 1037.44 545.574 1037.86 545.725C1036.81 545.343 1011.56 536.51 958.961 547.469C958.807 547.502 958.654 547.537 958.502 547.576L728.18 607.846C727.666 607.98 727.164 608.158 726.68 608.379L722.417 610.318C721.234 610.858 720.177 611.639 719.314 612.612C718.452 613.585 717.802 614.728 717.408 615.967C717.014 617.206 716.884 618.514 717.027 619.807C717.169 621.099 717.581 622.347 718.235 623.471L977.074 1067.46C978.14 1069.29 979.797 1070.7 981.773 1071.46C983.748 1072.22 985.923 1072.28 987.938 1071.64ZM730.125 627.253L734.388 625.313C733.904 625.534 733.402 625.712 732.888 625.846L963.21 565.574C963.058 565.614 962.906 565.65 962.752 565.681C1009.47 555.947 1031.29 563.134 1031.5 563.208C1031.91 563.36 1032.34 563.48 1032.77 563.571C1034.58 563.95 1214.28 601.585 1246.86 610.374C1271.07 616.908 1271.18 630.328 1271.11 631.837C1271.08 632.13 1271.09 632.209 1271.09 632.505V952.042C1271.09 962.322 1253.96 967.253 1253.79 967.302C1253.63 967.343 1253.47 967.39 1253.31 967.442L982.284 1053.92C984.3 1053.27 986.475 1053.34 988.45 1054.1C990.425 1054.86 992.083 1056.27 993.148 1058.09L734.309 614.1C735.635 616.373 735.935 619.099 735.135 621.606C734.742 622.845 734.092 623.989 733.229 624.962C732.366 625.934 731.309 626.715 730.125 627.253Z" fill="#6E6E96"/>
<path d="M739.397 976.305C739.397 976.305 718.309 967.864 718.309 946.778L718.307 632.683C718.307 632.683 720.116 609.309 747.831 617.744C779.16 627.278 985.115 681.019 985.115 681.019V1062.78C985.115 1062.78 984.91 1064.94 967.187 1062.6C941.319 1059.19 739.397 976.305 739.397 976.305Z" fill="#A9EBD5"/>
<path d="M742.85 967.668L742.909 967.693C742.281 967.435 727.604 961.153 727.604 946.779V632.684C727.604 632.924 727.595 633.166 727.574 633.403C727.57 633.484 728.172 628.684 731.393 626.556C734.891 624.241 740.79 625.328 745.118 626.646C776.268 636.126 974.343 687.828 982.76 690.023C980.768 689.504 979.005 688.338 977.746 686.709C976.488 685.079 975.805 683.079 975.806 681.02V1062.78C975.806 1062.48 975.82 1062.19 975.847 1061.9C976.294 1057.19 980.029 1054.62 981.93 1054.3C981.813 1054.31 978.966 1054.77 968.398 1053.38C950.3 1050.99 823.644 1000.83 742.85 967.668ZM965.97 1071.83C982.425 1074 987.377 1072.94 990.756 1070.25C992.733 1068.67 994.136 1066.17 994.373 1063.66C994.403 1063.36 994.417 1063.07 994.417 1062.78V681.02C994.417 678.962 993.734 676.961 992.476 675.332C991.218 673.703 989.454 672.537 987.463 672.017C985.404 671.482 781.334 618.215 750.542 608.844C738.517 605.183 728.519 605.99 720.829 611.24C710.372 618.378 709.14 630.593 709.033 631.963C709.009 632.203 709 632.445 709 632.684V946.777C709 973.852 734.836 984.502 735.938 984.939C756.643 993.443 939.659 1068.36 965.97 1071.83Z" fill="#6E6E96"/>
<path d="M1000.14 681.019L1271.98 612.123C1267.37 607.997 1260.6 604.094 1250.6 601.396C1217.39 592.434 1035.99 554.47 1035.99 554.47C1035.99 554.47 1012.79 546.031 962.176 556.577L732.826 616.249L733.712 615.886L973.905 680.924C973.905 680.924 986.053 684.589 1000.14 681.019Z" fill="#A9EBD5"/>
<path d="M1002.43 690.04L1274.27 621.143C1275.91 620.73 1277.4 619.878 1278.59 618.681C1279.78 617.483 1280.62 615.984 1281.02 614.345C1281.42 612.706 1281.37 610.988 1280.87 609.375C1280.37 607.763 1279.44 606.317 1278.19 605.193C1271.83 599.506 1263.37 595.208 1253.03 592.417C1219.93 583.49 1045.32 546.918 1037.9 545.367C1038.34 545.458 1038.76 545.579 1039.18 545.73C1038.13 545.348 1012.88 536.515 960.283 547.474C960.134 547.507 959.985 547.539 959.839 547.579L730.487 607.246C732.77 606.651 735.195 606.946 737.27 608.072C739.344 609.197 740.913 611.069 741.659 613.308C742.405 615.548 742.272 617.986 741.287 620.131C740.302 622.276 738.539 623.966 736.355 624.86L737.241 624.497C735.351 625.271 733.258 625.401 731.287 624.867L971.48 689.905L971.226 689.833C971.817 690.012 986.028 694.194 1002.43 690.04ZM976.341 671.945L736.145 606.907C734.173 606.373 732.08 606.503 730.189 607.276L729.303 607.639C727.118 608.533 725.355 610.223 724.37 612.368C723.385 614.513 723.252 616.952 723.998 619.191C724.744 621.43 726.314 623.302 728.388 624.427C730.462 625.553 732.887 625.848 735.171 625.253L964.519 565.581C964.374 565.62 964.223 565.653 964.077 565.686C1010.42 556.029 1032.53 563.106 1032.73 563.181C1033.17 563.348 1033.63 563.478 1034.09 563.576C1035.9 563.955 1215.6 601.59 1248.18 610.379C1255.69 612.405 1261.61 615.324 1265.78 619.057C1264.52 617.932 1263.6 616.486 1263.1 614.874C1262.6 613.262 1262.55 611.545 1262.95 609.906C1263.35 608.268 1264.19 606.769 1265.38 605.571C1266.57 604.373 1268.06 603.521 1269.7 603.106L997.85 672.003C986.626 674.847 976.646 672.031 976.341 671.945Z" fill="#6E6E96"/>
<path opacity="0.15" d="M735.17 625.253L739.454 627.683L928.425 734.866L975.377 1053.38L977.268 688.349" fill="#6E6E96"/>
<path opacity="0.15" d="M994.414 1050.04L1042.39 727.888L1265.78 619.057L994.414 690.04V1050.04Z" fill="#6E6E96"/>
</svg>
